<?xml version="1.0" encoding="utf-8"?>
<!-- Generator: Adobe Illustrator 26.3.1, SVG Export Plug-In . SVG Version: 6.00 Build 0)  -->
<svg version="1.1" id="Layer_1" xmlns="http://www.w3.org/2000/svg" xmlns:xlink="http://www.w3.org/1999/xlink" x="0px" y="0px"
	 viewBox="0 0 1025.3 210.4" style="enable-background:new 0 0 1025.3 210.4;" xml:space="preserve">
<style type="text/css">
	.st0{fill:#FFFFFF;}
</style>
<path class="st0" d="M185.5,89.4h-65.4v120.1h65.4V89.4z"/>
<path class="st0" d="M269.6,0H149.4v60.1h120.1V0z"/>
<path class="st0" d="M120.1,29.3H0v60.1h120.1V29.3z"/>
<path class="st0" d="M902.3,68.4h-25.4v142h24.3v-93.5h1.1l48.3,93.5h1.2l48.5-93.5h1v93.5h24v-142H1002l-49.5,96.4h-0.8L902.3,68.4
	z M351,210.4h24.3V89.5H439V68.4h-63.6v21.1h-75v21.1H351V210.4z M563.2,68.4v19.1H609v123h24.3v-123H679V68.4L563.2,68.4z
	 M812.9,177c0.4,6.3-4.5,11.8-10.8,12.2c-0.5,0-0.9,0-1.4,0H748c-3.3,0.2-6.5-1-8.8-3.4c-2.3-2.3-3.5-5.5-3.3-8.8V68.4h-24.3v107.5
	c0,20.5,14,34.5,34.5,34.5h56.8c20.5,0,34.5-14,34.5-34.5V68.4h-24.4V177z M513.7,153.3h-47.3l23.3-57.2h0.8L513.7,153.3z
	 M503.4,68.3h-25.1l-59,142H443l14.6-35.9h64.7l14.6,35.9h25.3L503.4,68.3z"/>
</svg>
